# xmcd
#
# Track frame offsets: 
#        150
#        14009
#        30159
#        43606
#        56691
#        71285
#        84223
#        96431
#        114481
#        125882
#        143294
#        157210
#        172819
#
# Disc length: 2520 seconds
#
# Revision: 0
# Processed by: cddbd v1.5.2PL0 Copyright (c) Steve Scherf et al.
# Submitted via: ExactAudioCopy v0.99pb5
#
DISCID=a309d60d
DTITLE=Craig Duncan - Blue Suede Bluegrass
DYEAR=2013
DGENRE=Bluegrass
TTITLE0=Blue Suede Shoes
TTITLE1=Jailhouse Rock
TTITLE2=Don't Be Cruel
TTITLE3=Hound Dog
TTITLE4=Burning Love
TTITLE5=Love Me Tender
TTITLE6=(Let Me Be Your) Teddy Bear
TTITLE7=Suspicious Minds
TTITLE8=Heartbreak Hotel
TTITLE9=All Shook Up
TTITLE10=Return to Sender
TTITLE11=Can't Help Falling in Love
TTITLE12=It's Now or Never
EXTD=
EXTT0=
EXTT1=
EXTT2=
EXTT3=
EXTT4=
EXTT5=
EXTT6=
EXTT7=
EXTT8=
EXTT9=
EXTT10=
EXTT11=
EXTT12=
PLAYORDER=
